<svg width="124" height="124" viewBox="0 0 124 124" fill="none" xmlns="http://www.w3.org/2000/svg">
<path d="M62.0003 62C56.317 62 51.4517 59.9763 47.4045 55.9291C43.3573 51.8819 41.3337 47.0166 41.3337 41.3333C41.3337 35.65 43.3573 30.7847 47.4045 26.7375C51.4517 22.6902 56.317 20.6666 62.0003 20.6666C67.6837 20.6666 72.5489 22.6902 76.5962 26.7375C80.6434 30.7847 82.667 35.65 82.667 41.3333C82.667 47.0166 80.6434 51.8819 76.5962 55.9291C72.5489 59.9763 67.6837 62 62.0003 62ZM20.667 103.333V88.8666C20.667 85.9389 21.4213 83.2487 22.93 80.7963C24.4387 78.3438 26.4399 76.4701 28.9337 75.175C34.2725 72.5055 39.6975 70.5043 45.2087 69.1713C50.7198 67.8383 56.317 67.1701 62.0003 67.1666C67.6837 67.1666 73.2809 67.8348 78.792 69.1713C84.3031 70.5077 89.7281 72.509 95.067 75.175C97.5642 76.4666 99.5672 78.3404 101.076 80.7963C102.584 83.2522 103.337 85.9423 103.334 88.8666V103.333H20.667Z" fill="white"/>
</svg>
